<svg width="141" height="25" viewBox="0 0 141 25" fill="none" xmlns="http://www.w3.org/2000/svg">
<path d="M13.52 6.12C13.056 5.144 12.384 4.392 11.504 3.864C10.624 3.32 9.6 3.048 8.432 3.048C7.264 3.048 6.208 3.32 5.264 3.864C4.336 4.392 3.6 5.16 3.056 6.168C2.528 7.16 2.264 8.312 2.264 9.624C2.264 10.936 2.528 12.088 3.056 13.08C3.6 14.072 4.336 14.84 5.264 15.384C6.208 15.912 7.264 16.176 8.432 16.176C10.064 16.176 11.408 15.688 12.464 14.712C13.52 13.736 14.136 12.416 14.312 10.752H7.64V8.976H16.64V10.656C16.512 12.032 16.08 13.296 15.344 14.448C14.608 15.584 13.64 16.488 12.44 17.16C11.24 17.816 9.904 18.144 8.432 18.144C6.88 18.144 5.464 17.784 4.184 17.064C2.904 16.328 1.888 15.312 1.136 14.016C0.4 12.72 0.032 11.256 0.032 9.624C0.032 7.992 0.4 6.528 1.136 5.232C1.888 3.92 2.904 2.904 4.184 2.184C5.464 1.448 6.88 1.08 8.432 1.08C10.208 1.08 11.776 1.52 13.136 2.4C14.512 3.28 15.512 4.52 16.136 6.12H13.52ZM21.7117 6.984C22.0957 6.232 22.6397 5.648 23.3437 5.232C24.0637 4.816 24.9357 4.608 25.9597 4.608V6.864H25.3837C22.9357 6.864 21.7117 8.192 21.7117 10.848V18H19.5277V4.848H21.7117V6.984ZM40.1448 4.848V18H37.9608V16.056C37.5448 16.728 36.9608 17.256 36.2088 17.64C35.4728 18.008 34.6568 18.192 33.7608 18.192C32.7368 18.192 31.8168 17.984 31.0008 17.568C30.1848 17.136 29.5368 16.496 29.0568 15.648C28.5928 14.8 28.3608 13.768 28.3608 12.552V4.848H30.5208V12.264C30.5208 13.56 30.8488 14.56 31.5048 15.264C32.1608 15.952 33.0568 16.296 34.1928 16.296C35.3608 16.296 36.2808 15.936 36.9528 15.216C37.6248 14.496 37.9608 13.448 37.9608 12.072V4.848H40.1448ZM46.0164 7.272C46.4484 6.52 47.0884 5.896 47.9364 5.4C48.8004 4.888 49.8004 4.632 50.9364 4.632C52.1044 4.632 53.1604 4.912 54.1044 5.472C55.0644 6.032 55.8164 6.824 56.3604 7.848C56.9044 8.856 57.1764 10.032 57.1764 11.376C57.1764 12.704 56.9044 13.888 56.3604 14.928C55.8164 15.968 55.0644 16.776 54.1044 17.352C53.1604 17.928 52.1044 18.216 50.9364 18.216C49.8164 18.216 48.8244 17.968 47.9604 17.472C47.1124 16.96 46.4644 16.328 46.0164 15.576V24.24H43.8324V4.848H46.0164V7.272ZM54.9444 11.376C54.9444 10.384 54.7444 9.52 54.3444 8.784C53.9444 8.048 53.4004 7.488 52.7124 7.104C52.0404 6.72 51.2964 6.528 50.4804 6.528C49.6804 6.528 48.9364 6.728 48.2484 7.128C47.5764 7.512 47.0324 8.08 46.6164 8.832C46.2164 9.568 46.0164 10.424 46.0164 11.4C46.0164 12.392 46.2164 13.264 46.6164 14.016C47.0324 14.752 47.5764 15.32 48.2484 15.72C48.9364 16.104 49.6804 16.296 50.4804 16.296C51.2964 16.296 52.0404 16.104 52.7124 15.72C53.4004 15.32 53.9444 14.752 54.3444 14.016C54.7444 13.264 54.9444 12.384 54.9444 11.376ZM65.7871 18.216C64.5551 18.216 63.4351 17.936 62.4271 17.376C61.4351 16.816 60.6511 16.024 60.0751 15C59.5151 13.96 59.2351 12.76 59.2351 11.4C59.2351 10.056 59.5231 8.872 60.0991 7.848C60.6911 6.808 61.4911 6.016 62.4991 5.472C63.5071 4.912 64.6351 4.632 65.8831 4.632C67.1311 4.632 68.2591 4.912 69.2671 5.472C70.2751 6.016 71.0671 6.8 71.6431 7.824C72.2351 8.848 72.5311 10.04 72.5311 11.4C72.5311 12.76 72.2271 13.96 71.6191 15C71.0271 16.024 70.2191 16.816 69.1951 17.376C68.1711 17.936 67.0351 18.216 65.7871 18.216ZM65.7871 16.296C66.5711 16.296 67.3071 16.112 67.9951 15.744C68.6831 15.376 69.2351 14.824 69.6511 14.088C70.0831 13.352 70.2991 12.456 70.2991 11.4C70.2991 10.344 70.0911 9.448 69.6751 8.712C69.2591 7.976 68.7151 7.432 68.0431 7.08C67.3711 6.712 66.6431 6.528 65.8591 6.528C65.0591 6.528 64.3231 6.712 63.6511 7.08C62.9951 7.432 62.4671 7.976 62.0671 8.712C61.6671 9.448 61.4671 10.344 61.4671 11.4C61.4671 12.472 61.6591 13.376 62.0431 14.112C62.4431 14.848 62.9711 15.4 63.6271 15.768C64.2831 16.12 65.0031 16.296 65.7871 16.296ZM91.6891 14.28H84.3931L83.0491 18H80.7451L86.7931 1.368H89.3131L95.3371 18H93.0331L91.6891 14.28ZM91.0651 12.504L88.0411 4.056L85.0171 12.504H91.0651ZM100.157 0.24V18H97.973V0.24H100.157ZM115.543 4.848V18H113.359V16.056C112.943 16.728 112.359 17.256 111.607 17.64C110.871 18.008 110.055 18.192 109.159 18.192C108.135 18.192 107.215 17.984 106.399 17.568C105.583 17.136 104.935 16.496 104.455 15.648C103.991 14.8 103.759 13.768 103.759 12.552V4.848H105.919V12.264C105.919 13.56 106.247 14.56 106.903 15.264C107.559 15.952 108.455 16.296 109.591 16.296C110.759 16.296 111.679 15.936 112.351 15.216C113.023 14.496 113.359 13.448 113.359 12.072V4.848H115.543ZM121.415 6.984C121.799 6.232 122.343 5.648 123.047 5.232C123.767 4.816 124.639 4.608 125.663 4.608V6.864H125.087C122.639 6.864 121.415 8.192 121.415 10.848V18H119.231V4.848H121.415V6.984ZM127.368 11.376C127.368 10.032 127.64 8.856 128.184 7.848C128.728 6.824 129.472 6.032 130.416 5.472C131.376 4.912 132.44 4.632 133.608 4.632C134.76 4.632 135.76 4.88 136.608 5.376C137.456 5.872 138.088 6.496 138.504 7.248V4.848H140.712V18H138.504V15.552C138.072 16.32 137.424 16.96 136.56 17.472C135.712 17.968 134.72 18.216 133.584 18.216C132.416 18.216 131.36 17.928 130.416 17.352C129.472 16.776 128.728 15.968 128.184 14.928C127.64 13.888 127.368 12.704 127.368 11.376ZM138.504 11.4C138.504 10.408 138.304 9.544 137.904 8.808C137.504 8.072 136.96 7.512 136.272 7.128C135.6 6.728 134.856 6.528 134.04 6.528C133.224 6.528 132.48 6.72 131.808 7.104C131.136 7.488 130.6 8.048 130.2 8.784C129.8 9.52 129.6 10.384 129.6 11.376C129.6 12.384 129.8 13.264 130.2 14.016C130.6 14.752 131.136 15.32 131.808 15.72C132.48 16.104 133.224 16.296 134.04 16.296C134.856 16.296 135.6 16.104 136.272 15.72C136.96 15.32 137.504 14.752 137.904 14.016C138.304 13.264 138.504 12.392 138.504 11.4Z" fill="black"/>
</svg>
